# Blender v2.79 (sub 0) OBJ File: 'cube.blend'
# www.blender.org
mtllib cube.mtl
o Cube
v -0.983076 -1.000000 0.983076
v -0.983076 -0.983076 1.000000
v -1.000000 -0.983076 0.983076
v -0.983076 -0.997739 0.991527
v -0.991527 -0.997739 0.983076
v -0.991169 -0.995543 0.991169
v -0.991527 -0.983076 0.997739
v -0.983076 -0.991527 0.997739
v -0.991169 -0.991169 0.995543
v -0.997739 -0.991527 0.983076
v -0.997739 -0.983076 0.991527
v -0.995543 -0.991169 0.991169
v -0.983076 0.983076 1.000000
v -0.983076 1.000000 0.983076
v -1.000000 0.983076 0.983076
v -0.983076 0.991527 0.997739
v -0.991527 0.983076 0.997739
v -0.991169 0.991169 0.995543
v -0.991527 0.997739 0.983076
v -0.983076 0.997739 0.991527
v -0.991169 0.995543 0.991169
v -0.997739 0.983076 0.991527
v -0.997739 0.991527 0.983076
v -0.995543 0.991169 0.991169
v -0.983076 -1.000000 -0.983076
v -1.000000 -0.983076 -0.983076
v -0.983076 -0.983076 -1.000000
v -0.991527 -0.997739 -0.983076
v -0.983076 -0.997739 -0.991527
v -0.991169 -0.995543 -0.991169
v -0.997739 -0.983076 -0.991527
v -0.997739 -0.991527 -0.983076
v -0.995543 -0.991169 -0.991169
v -0.983076 -0.991527 -0.997739
v -0.991527 -0.983076 -0.997739
v -0.991169 -0.991169 -0.995543
v -0.983076 1.000000 -0.983076
v -0.983076 0.983076 -1.000000
v -1.000000 0.983076 -0.983076
v -0.983076 0.997739 -0.991527
v -0.991527 0.997739 -0.983076
v -0.991169 0.995543 -0.991169
v -0.991527 0.983076 -0.997739
v -0.983076 0.991527 -0.997739
v -0.991169 0.991169 -0.995543
v -0.997739 0.991527 -0.983076
v -0.997739 0.983076 -0.991527
v -0.995543 0.991169 -0.991169
v 0.983076 -1.000000 0.983076
v 1.000000 -0.983076 0.983076
v 0.983076 -0.983076 1.000000
v 0.991527 -0.997739 0.983076
v 0.983076 -0.997739 0.991527
v 0.991169 -0.995543 0.991169
v 0.997739 -0.983076 0.991527
v 0.997739 -0.991527 0.983076
v 0.995543 -0.991169 0.991169
v 0.983076 -0.991527 0.997739
v 0.991527 -0.983076 0.997739
v 0.991169 -0.991169 0.995543
v 0.983076 1.000000 0.983076
v 0.983076 0.983076 1.000000
v 1.000000 0.983076 0.983076
v 0.983076 0.997739 0.991527
v 0.991527 0.997739 0.983076
v 0.991169 0.995543 0.991169
v 0.991527 0.983076 0.997739
v 0.983076 0.991527 0.997739
v 0.991169 0.991169 0.995543
v 0.997739 0.991527 0.983076
v 0.997739 0.983076 0.991527
v 0.995543 0.991169 0.991169
v 0.983076 -1.000000 -0.983076
v 0.983076 -0.983076 -1.000000
v 1.000000 -0.983076 -0.983076
v 0.983076 -0.997739 -0.991527
v 0.991527 -0.997739 -0.983076
v 0.991169 -0.995543 -0.991169
v 0.991527 -0.983076 -0.997739
v 0.983076 -0.991527 -0.997739
v 0.991169 -0.991169 -0.995543
v 0.997739 -0.991527 -0.983076
v 0.997739 -0.983076 -0.991527
v 0.995543 -0.991169 -0.991169
v 0.983076 1.000000 -0.983076
v 1.000000 0.983076 -0.983076
v 0.983076 0.983076 -1.000000
v 0.991527 0.997739 -0.983076
v 0.983076 0.997739 -0.991527
v 0.991169 0.995543 -0.991169
v 0.997739 0.983076 -0.991527
v 0.997739 0.991527 -0.983076
v 0.995543 0.991169 -0.991169
v 0.983076 0.991527 -0.997739
v 0.991527 0.983076 -0.997739
v 0.991169 0.991169 -0.995543
vt 0.524692 0.476129
vt 0.960205 0.040609
vt 0.960209 0.476127
vt 0.048129 0.952704
vt 0.483638 0.517181
vt 0.483645 0.952697
vt 0.483650 0.954609
vt 0.485596 0.956147
vt 0.483713 0.956554
vt 0.485590 0.952766
vt 0.046241 0.952760
vt 0.044843 0.954874
vt 0.044284 0.952909
vt 0.048076 0.954594
vt 0.047925 0.956549
vt 0.046243 0.954585
vt 0.045926 0.955973
vt 0.483639 0.515267
vt 0.485581 0.517109
vt 0.483708 0.513320
vt 0.485507 0.515159
vt 0.048066 0.515300
vt 0.045952 0.513902
vt 0.047917 0.513343
vt 0.046232 0.517135
vt 0.048122 0.517188
vt 0.044853 0.514985
vt 0.046242 0.515302
vt 0.960207 0.038696
vt 0.962148 0.040538
vt 0.960276 0.036749
vt 0.962074 0.038588
vt 0.524633 0.038726
vt 0.522519 0.037328
vt 0.524484 0.036768
vt 0.522799 0.040560
vt 0.524689 0.040613
vt 0.521420 0.038411
vt 0.522809 0.038727
vt 0.960213 0.478043
vt 0.962163 0.479582
vt 0.960278 0.479992
vt 0.962155 0.476195
vt 0.522806 0.476184
vt 0.521410 0.478295
vt 0.520850 0.476333
vt 0.524638 0.478014
vt 0.524488 0.479967
vt 0.522808 0.478006
vt 0.522493 0.479393
vt 0.044277 0.516984
vt 0.520844 0.040409
vt 0.485517 0.954711
vt 0.485596 0.513738
vt 0.962163 0.037167
vt 0.962084 0.478144
vt 0.951393 0.044237
vt 0.041429 0.954213
vt 0.041423 0.044243
vt 0.046231 0.040545
vt 0.048064 0.038709
vt 0.048119 0.040600
vt 0.044277 0.040395
vt 0.046239 0.038712
vt 0.047915 0.036749
vt 0.045949 0.037311
vt 0.044850 0.038397
vt 0.955436 0.954277
vt 0.951469 0.958250
vt 0.951399 0.954207
vt 0.483715 0.038705
vt 0.485551 0.040537
vt 0.483660 0.040592
vt 0.483865 0.036751
vt 0.485548 0.038713
vt 0.487510 0.040388
vt 0.486948 0.038423
vt 0.485863 0.037325
vt 0.951463 0.040200
vt 0.955436 0.044167
vt 0.048073 0.478031
vt 0.046236 0.476198
vt 0.048127 0.476143
vt 0.047923 0.479986
vt 0.046239 0.478023
vt 0.044277 0.476347
vt 0.044838 0.478313
vt 0.045924 0.479412
vt 0.041360 0.958250
vt 0.037386 0.954283
vt 0.485556 0.476189
vt 0.483724 0.478024
vt 0.483669 0.476134
vt 0.487510 0.476338
vt 0.485548 0.478021
vt 0.483873 0.479983
vt 0.485838 0.479422
vt 0.486936 0.478337
vt 0.037386 0.044173
vt 0.041353 0.040200
vt 0.955412 0.958220
vt 0.955407 0.040224
vt 0.037416 0.958226
vt 0.037409 0.040230
vt 0.525683 0.474193
vt 0.961175 0.038713
vt 0.961169 0.474199
vt 0.525682 0.946918
vt 0.961172 0.511437
vt 0.961168 0.946923
vt 0.961208 0.036783
vt 0.963105 0.038680
vt 0.523775 0.038706
vt 0.525618 0.036761
vt 0.525689 0.038707
vt 0.522245 0.036749
vt 0.523667 0.036837
vt 0.963104 0.946956
vt 0.961201 0.948859
vt 0.523772 0.946921
vt 0.522236 0.948866
vt 0.521828 0.946985
vt 0.525614 0.948858
vt 0.963105 0.474232
vt 0.961202 0.476136
vt 0.523774 0.474196
vt 0.522238 0.476141
vt 0.521830 0.474260
vt 0.525615 0.476133
vt 0.961206 0.509502
vt 0.963104 0.511404
vt 0.523775 0.511431
vt 0.525616 0.509490
vt 0.525687 0.511432
vt 0.522246 0.509475
vt 0.523667 0.509564
vt 0.521828 0.511362
vt 0.521828 0.038637
vt 0.963092 0.036796
vt 0.963091 0.948846
vt 0.523672 0.948787
vt 0.963092 0.476123
vt 0.523673 0.476062
vt 0.963093 0.509516
vn 0.9835 0.1280 -0.1280
vn 0.9835 -0.1280 0.1280
vn 0.9835 -0.1280 -0.1280
vn -0.9835 0.1280 0.1280
vn -0.9835 -0.1280 -0.1280
vn -0.9835 -0.1280 0.1280
vn -0.8623 -0.1216 0.4916
vn -0.4488 -0.4488 0.7727
vn -0.4916 -0.1216 0.8623
vn -0.8623 -0.4916 0.1216
vn -0.8623 0.4916 0.1216
vn -0.4488 0.7727 0.4488
vn -0.4916 0.8623 0.1216
vn -0.8623 0.1216 0.4916
vn -0.4916 0.1216 0.8623
vn -0.7727 0.4488 0.4488
vn -0.4488 0.4488 0.7727
vn -0.8623 -0.1216 -0.4916
vn -0.8623 -0.4916 -0.1216
vn -0.4916 -0.1216 -0.8623
vn -0.7727 -0.4488 -0.4488
vn -0.8623 0.1216 -0.4916
vn -0.4488 0.4488 -0.7727
vn -0.4916 0.1216 -0.8623
vn -0.8623 0.4916 -0.1216
vn -0.9835 0.1280 -0.1280
vn -0.4488 0.7727 -0.4488
vn -0.7727 0.4488 -0.4488
vn 0.8623 -0.1216 0.4916
vn 0.8623 -0.4916 0.1216
vn 0.4916 -0.1216 0.8623
vn 0.7727 -0.4488 0.4488
vn 0.8623 0.1216 0.4916
vn 0.4488 0.4488 0.7727
vn 0.4916 0.1216 0.8623
vn 0.8623 0.4916 0.1216
vn 0.9835 0.1280 0.1280
vn 0.4488 0.7727 0.4488
vn 0.7727 0.4488 0.4488
vn 0.8623 -0.1216 -0.4916
vn 0.4488 -0.4488 -0.7727
vn 0.4916 -0.1216 -0.8623
vn 0.8623 -0.4916 -0.1216
vn 0.8623 0.4916 -0.1216
vn 0.4488 0.7727 -0.4488
vn 0.4916 0.8623 -0.1216
vn 0.8623 0.1216 -0.4916
vn 0.4916 0.1216 -0.8623
vn 0.7727 0.4488 -0.4488
vn 0.4488 0.4488 -0.7727
vn -0.4916 0.8623 -0.1216
vn 0.4916 0.8623 0.1216
vn -0.7727 -0.4488 0.4488
vn -0.4488 -0.4488 -0.7727
vn 0.4488 -0.4488 0.7727
vn 0.7727 -0.4488 -0.4488
vn -0.1280 0.9835 -0.1280
vn 0.1280 0.9835 0.1280
vn 0.1280 0.9835 -0.1280
vn -0.1216 -0.8623 0.4916
vn -0.4916 -0.8623 0.1216
vn -0.1280 -0.9835 0.1280
vn -0.1216 -0.4916 0.8623
vn -0.4488 -0.7727 0.4488
vn -0.1216 0.8623 0.4916
vn -0.1280 0.9835 0.1280
vn -0.4916 -0.8623 -0.1216
vn -0.1216 -0.8623 -0.4916
vn -0.1280 -0.9835 -0.1280
vn -0.4488 -0.7727 -0.4488
vn -0.1216 -0.4916 -0.8623
vn -0.1216 0.8623 -0.4916
vn 0.4916 -0.8623 0.1216
vn 0.1216 -0.8623 0.4916
vn 0.1280 -0.9835 0.1280
vn 0.4488 -0.7727 0.4488
vn 0.1216 -0.4916 0.8623
vn 0.1216 0.8623 0.4916
vn 0.1216 -0.8623 -0.4916
vn 0.4916 -0.8623 -0.1216
vn 0.1280 -0.9835 -0.1280
vn 0.1216 -0.4916 -0.8623
vn 0.4488 -0.7727 -0.4488
vn 0.1216 0.8623 -0.4916
vn 0.1280 0.1280 0.9835
vn -0.1280 -0.1280 0.9835
vn 0.1280 -0.1280 0.9835
vn -0.1280 0.1280 -0.9835
vn 0.1280 -0.1280 -0.9835
vn -0.1280 -0.1280 -0.9835
vn -0.1216 0.4916 0.8623
vn -0.1280 0.1280 0.9835
vn -0.1216 0.4916 -0.8623
vn 0.1216 0.4916 0.8623
vn 0.1216 0.4916 -0.8623
vn 0.1280 0.1280 -0.9835
usemtl Material.001
s 1
f 86/1/1 50/2/2 75/3/3
f 15/4/4 26/5/5 3/6/6
f 11/7/7 9/8/8 7/9/9
f 10/10/10 11/7/7 3/6/6
f 23/11/11 21/12/12 19/13/13
f 22/14/14 23/11/11 15/4/4
f 17/15/15 24/16/16 22/14/14
f 18/17/17 21/12/12 24/16/16
f 31/18/18 32/19/19 26/5/5
f 35/20/20 33/21/21 31/18/18
f 47/22/22 45/23/23 43/24/24
f 46/25/25 47/22/22 39/26/26
f 46/25/25 42/27/27 48/28/28
f 42/27/27 45/23/23 48/28/28
f 55/29/29 56/30/30 50/2/2
f 59/31/31 57/32/32 55/29/29
f 71/33/33 69/34/34 67/35/35
f 70/36/36 71/33/33 63/37/37
f 70/36/36 66/38/38 72/39/39
f 66/38/38 69/34/34 72/39/39
f 83/40/40 81/41/41 79/42/42
f 82/43/43 83/40/40 75/3/3
f 92/44/44 90/45/45 88/46/46
f 91/47/47 92/44/44 86/1/1
f 95/48/48 93/49/49 91/47/47
f 90/45/45 93/49/49 96/50/50
f 10/10/10 26/5/5 32/19/19
f 17/15/15 11/7/7 7/9/9
f 22/14/14 3/6/6 11/7/7
f 41/51/51 23/11/11 19/13/13
f 46/25/25 15/4/4 23/11/11
f 35/20/20 47/22/22 43/24/24
f 31/18/18 39/26/26 47/22/22
f 75/3/3 91/47/47 86/1/1
f 83/40/40 95/48/48 91/47/47
f 82/43/43 50/2/2 56/30/30
f 65/52/52 92/44/44 88/46/46
f 70/36/36 86/1/1 92/44/44
f 59/31/31 71/33/33 67/35/35
f 55/29/29 63/37/37 71/33/33
f 86/1/1 63/37/37 50/2/2
f 15/4/4 39/26/26 26/5/5
f 11/7/7 12/53/53 9/8/8
f 10/10/10 12/53/53 11/7/7
f 23/11/11 24/16/16 21/12/12
f 22/14/14 24/16/16 23/11/11
f 17/15/15 18/17/17 24/16/16
f 31/18/18 33/21/21 32/19/19
f 35/20/20 36/54/54 33/21/21
f 47/22/22 48/28/28 45/23/23
f 46/25/25 48/28/28 47/22/22
f 46/25/25 41/51/51 42/27/27
f 55/29/29 57/32/32 56/30/30
f 59/31/31 60/55/55 57/32/32
f 71/33/33 72/39/39 69/34/34
f 70/36/36 72/39/39 71/33/33
f 70/36/36 65/52/52 66/38/38
f 83/40/40 84/56/56 81/41/41
f 82/43/43 84/56/56 83/40/40
f 92/44/44 93/49/49 90/45/45
f 91/47/47 93/49/49 92/44/44
f 95/48/48 96/50/50 93/49/49
f 10/10/10 3/6/6 26/5/5
f 17/15/15 22/14/14 11/7/7
f 22/14/14 15/4/4 3/6/6
f 41/51/51 46/25/25 23/11/11
f 46/25/25 39/26/26 15/4/4
f 35/20/20 31/18/18 47/22/22
f 31/18/18 26/5/5 39/26/26
f 75/3/3 83/40/40 91/47/47
f 83/40/40 79/42/42 95/48/48
f 82/43/43 75/3/3 50/2/2
f 65/52/52 70/36/36 92/44/44
f 70/36/36 63/37/37 86/1/1
f 59/31/31 55/29/29 71/33/33
f 55/29/29 50/2/2 63/37/37
usemtl Material
f 37/57/57 61/58/58 85/59/59
f 4/60/60 5/61/61 1/62/62
f 8/63/63 6/64/64 4/60/60
f 10/65/10 6/64/64 12/66/53
f 6/64/64 9/67/8 12/66/53
f 19/68/13 20/69/65 14/70/66
f 28/71/67 29/72/68 25/73/69
f 32/74/19 30/75/70 28/71/67
f 34/76/71 30/75/70 36/77/54
f 30/75/70 33/78/21 36/77/54
f 40/79/72 41/80/51 37/57/57
f 52/81/73 53/82/74 49/83/75
f 56/84/30 54/85/76 52/81/73
f 58/86/77 54/85/76 60/87/55
f 54/85/76 57/88/32 60/87/55
f 64/89/78 65/90/52 61/58/58
f 76/91/79 77/92/80 73/93/81
f 80/94/82 78/95/83 76/91/79
f 82/96/43 78/95/83 84/97/56
f 78/95/83 81/98/41 84/97/56
f 88/99/46 89/100/84 85/59/59
f 1/62/62 28/71/67 25/73/69
f 5/61/61 32/74/19 28/71/67
f 37/57/57 19/68/13 14/70/66
f 25/73/69 76/91/79 73/93/81
f 29/72/68 80/94/82 76/91/79
f 85/59/59 40/79/72 37/57/57
f 73/93/81 52/81/73 49/83/75
f 77/92/80 56/84/30 52/81/73
f 61/58/58 88/99/46 85/59/59
f 49/83/75 4/60/60 1/62/62
f 53/82/74 8/63/63 4/60/60
f 14/70/66 64/89/78 61/58/58
f 73/93/81 1/62/62 25/73/69
f 37/57/57 14/70/66 61/58/58
f 4/60/60 6/64/64 5/61/61
f 8/63/63 9/67/8 6/64/64
f 10/65/10 5/61/61 6/64/64
f 19/68/13 21/101/12 20/69/65
f 28/71/67 30/75/70 29/72/68
f 32/74/19 33/78/21 30/75/70
f 34/76/71 29/72/68 30/75/70
f 40/79/72 42/102/27 41/80/51
f 52/81/73 54/85/76 53/82/74
f 56/84/30 57/88/32 54/85/76
f 58/86/77 53/82/74 54/85/76
f 64/89/78 66/103/38 65/90/52
f 76/91/79 78/95/83 77/92/80
f 80/94/82 81/98/41 78/95/83
f 82/96/43 77/92/80 78/95/83
f 88/99/46 90/104/45 89/100/84
f 1/62/62 5/61/61 28/71/67
f 5/61/61 10/65/10 32/74/19
f 37/57/57 41/80/51 19/68/13
f 25/73/69 29/72/68 76/91/79
f 29/72/68 34/76/71 80/94/82
f 85/59/59 89/100/84 40/79/72
f 73/93/81 77/92/80 52/81/73
f 77/92/80 82/96/43 56/84/30
f 61/58/58 65/90/52 88/99/46
f 49/83/75 53/82/74 4/60/60
f 53/82/74 58/86/77 8/63/63
f 14/70/66 20/69/65 64/89/78
f 73/93/81 49/83/75 1/62/62
usemtl Material.002
f 62/105/85 2/106/86 51/107/87
f 38/108/88 74/109/89 27/110/90
f 7/111/9 8/112/63 2/106/86
f 16/113/91 17/114/15 13/115/92
f 16/113/91 21/116/12 18/117/17
f 34/118/71 35/119/20 27/110/90
f 44/120/93 42/121/27 40/122/72
f 43/123/24 44/120/93 38/108/88
f 58/124/77 59/125/31 51/107/87
f 68/126/94 66/127/38 64/128/78
f 67/129/35 68/126/94 62/105/85
f 79/130/42 80/131/82 74/109/89
f 94/132/95 95/133/48 87/134/96
f 94/132/95 90/135/45 96/136/50
f 13/115/92 7/111/9 2/106/86
f 27/110/90 43/123/24 38/108/88
f 34/118/71 74/109/89 80/131/82
f 89/137/84 44/120/93 40/122/72
f 94/132/95 38/108/88 44/120/93
f 79/130/42 87/134/96 95/133/48
f 51/107/87 67/129/35 62/105/85
f 58/124/77 2/106/86 8/112/63
f 20/138/65 68/126/94 64/128/78
f 16/113/91 62/105/85 68/126/94
f 62/105/85 13/115/92 2/106/86
f 38/108/88 87/134/96 74/109/89
f 7/111/9 9/139/8 8/112/63
f 16/113/91 18/117/17 17/114/15
f 16/113/91 20/138/65 21/116/12
f 34/118/71 36/140/54 35/119/20
f 44/120/93 45/141/23 42/121/27
f 43/123/24 45/141/23 44/120/93
f 58/124/77 60/142/55 59/125/31
f 68/126/94 69/143/34 66/127/38
f 67/129/35 69/143/34 68/126/94
f 79/130/42 81/144/41 80/131/82
f 94/132/95 96/136/50 95/133/48
f 94/132/95 89/137/84 90/135/45
f 13/115/92 17/114/15 7/111/9
f 27/110/90 35/119/20 43/123/24
f 34/118/71 27/110/90 74/109/89
f 89/137/84 94/132/95 44/120/93
f 94/132/95 87/134/96 38/108/88
f 79/130/42 74/109/89 87/134/96
f 51/107/87 59/125/31 67/129/35
f 58/124/77 51/107/87 2/106/86
f 20/138/65 16/113/91 68/126/94
f 16/113/91 13/115/92 62/105/85
