# Blender v2.80 (sub 75) OBJ File: 'tr.blend'
# www.blender.org
mtllib operatorS.mtl
o Cube.001_Cube.003
v 0.000000 -0.016667 0.016667
v 0.000000 0.016667 0.016667
v 0.000000 -0.016667 -0.016667
v 0.000000 0.016667 -0.016667
v 0.750000 -0.016667 0.016667
v 0.750000 0.016667 0.016667
v 0.750000 -0.016667 -0.016667
v 0.750000 0.016667 -0.016667
v 0.750000 -0.100000 -0.100000
v 0.750000 0.100000 -0.100000
v 0.750000 -0.100000 0.100000
v 0.750000 0.100000 0.100000
v 0.950000 -0.100000 -0.100000
v 0.950000 0.100000 -0.100000
v 0.950000 -0.100000 0.100000
v 0.950000 0.100000 0.100000
vn 0.0000 0.0000 -1.0000
vn 0.0000 0.0000 1.0000
vn 0.0000 -1.0000 0.0000
vn 0.0000 1.0000 0.0000
vn -1.0000 0.0000 0.0000
vn 1.0000 0.0000 0.0000
usemtl None
s off
f 4//1 7//1 3//1
f 6//2 1//2 5//2
f 7//3 1//3 3//3
f 4//4 6//4 8//4
f 10//5 11//5 12//5
f 15//6 14//6 16//6
f 12//4 14//4 10//4
f 9//3 15//3 11//3
f 11//2 16//2 12//2
f 10//1 13//1 9//1
f 4//1 8//1 7//1
f 6//2 2//2 1//2
f 7//3 5//3 1//3
f 4//4 2//4 6//4
f 10//5 9//5 11//5
f 15//6 13//6 14//6
f 12//4 16//4 14//4
f 9//3 13//3 15//3
f 11//2 15//2 16//2
f 10//1 14//1 13//1
